<?xml version="1.0" encoding="UTF-8"?>
<svg xmlns="http://www.w3.org/2000/svg" viewBox="0 0 32 32" width="32" height="32">
  <!-- Fond indigo -->
  <circle cx="16" cy="16" r="16" fill="#1B2A4A"/>
  <!-- Rose des vents -->
  <polygon points="16,2.5 17.2,12 16,10.5 14.8,12" fill="#E8A84C"/>
  <polygon points="16,29.5 17.2,20 16,21.5 14.8,20" fill="#D4883A"/>
  <polygon points="2.5,16 12,17.2 10.5,16 12,14.8" fill="#D4883A"/>
  <polygon points="29.5,16 20,17.2 21.5,16 20,14.8" fill="#D4883A"/>
  <!-- Diagonales -->
  <polygon points="5.5,5.5 12.5,13.5 11.5,11.5 13.5,12.5" fill="#E8A84C" opacity="0.5"/>
  <polygon points="26.5,5.5 19.5,13.5 20.5,11.5 18.5,12.5" fill="#E8A84C" opacity="0.5"/>
  <polygon points="5.5,26.5 12.5,18.5 11.5,20.5 13.5,19.5" fill="#E8A84C" opacity="0.5"/>
  <polygon points="26.5,26.5 19.5,18.5 20.5,20.5 18.5,19.5" fill="#E8A84C" opacity="0.5"/>
  <!-- Centre -->
  <circle cx="16" cy="16" r="2.5" fill="#E8A84C"/>
  <circle cx="16" cy="16" r="1" fill="#FDF5E6"/>
</svg>
